<svg xmlns="http://www.w3.org/2000/svg" width="346" height="395" fill="none" viewBox="0 0 346 395"><mask id="mask0" width="346" height="395" x="0" y="0" mask-type="alpha" maskUnits="userSpaceOnUse"><rect width="346" height="395" fill="#fff"/></mask><g mask="url(#mask0)"><rect width="23.014" height="23.014" x="54.364" y="205.547" fill="#8AE3FF" fill-opacity=".1" transform="rotate(-180 54.3643 205.547)"/><rect width="23.014" height="23.014" x="67.15" y="188.926" fill="#8AE3FF" fill-opacity=".1" transform="rotate(-180 67.1504 188.926)"/><rect width="11.507" height="11.507" x="7.059" y="240.067" fill="#8AE3FF" fill-opacity=".1" transform="rotate(-180 7.05859 240.067)"/><rect width="3.836" height="3.836" x="73.544" y="232.396" fill="#8AE3FF" fill-opacity=".1" transform="rotate(-180 73.5439 232.396)"/><rect width="3.836" height="3.836" x="64.593" y="240.067" fill="#8AE3FF" fill-opacity=".1" transform="rotate(-180 64.5928 240.067)"/><rect width="11.507" height="11.507" x="116.416" y="174.848" fill="#8AE3FF" fill-opacity=".1" transform="rotate(-180 116.416 174.848)"/><rect width="11.507" height="11.507" x="167.088" y="131.843" fill="#8AE3FF" fill-opacity=".1" transform="rotate(-180 167.088 131.843)"/><rect width="11.507" height="11.507" x="261.85" y="154.14" fill="#8AE3FF" fill-opacity=".1" transform="rotate(-180 261.85 154.14)"/><rect width="11.507" height="11.507" x="39.023" y="146.734" fill="#8AE3FF" fill-opacity=".1" transform="rotate(-180 39.0225 146.734)"/><rect width="3.836" height="3.836" x="7.059" y="121.164" fill="#8AE3FF" fill-opacity=".1" transform="rotate(-180 7.05859 121.164)"/><rect width="23.014" height="23.014" x="306.503" y="158.823" fill="#8AE3FF" fill-opacity=".1"/><rect width="23.014" height="23.014" x="293.717" y="175.444" fill="#8AE3FF" fill-opacity=".1"/><rect width="3.836" height="3.836" x="296.274" y="124.303" fill="#8AE3FF" fill-opacity=".1"/><rect width="11.507" height="11.507" x="258.575" y="190.567" fill="#8AE3FF" fill-opacity=".1"/><rect width="11.507" height="11.507" x="193.779" y="232.527" fill="#8AE3FF" fill-opacity=".1"/><rect width="11.507" height="11.507" x="99.018" y="210.23" fill="#8AE3FF" fill-opacity=".1"/></g></svg>