<svg xmlns="http://www.w3.org/2000/svg" width="1800" height="840" fill="none" viewBox="0 0 1800 840"><mask id="mask0" width="1800" height="840" x="0" y="0" mask-type="alpha" maskUnits="userSpaceOnUse"><rect width="1800" height="840" fill="#C4C4C4"/></mask><g mask="url(#mask0)"><rect width="67.692" height="67.692" x="883.508" y="445.635" fill="#8AE3FF" fill-opacity=".1" transform="rotate(-180 883.508 445.635)"/><rect width="67.692" height="67.692" x="921.115" y="396.746" fill="#8AE3FF" fill-opacity=".1" transform="rotate(-180 921.115 396.746)"/><rect width="33.846" height="33.846" x="744.363" y="547.172" fill="#8AE3FF" fill-opacity=".1" transform="rotate(-180 744.363 547.172)"/><rect width="60.17" height="60.17" x="218.17" y="554.171" fill="#8AE3FF" fill-opacity=".1" transform="rotate(-180 218.17 554.171)"/><rect width="33.846" height="33.846" x="620.262" y="430.592" fill="#8AE3FF" fill-opacity=".1" transform="rotate(-180 620.262 430.592)"/><rect width="11.282" height="11.282" x="939.922" y="524.608" fill="#8AE3FF" fill-opacity=".1" transform="rotate(-180 939.922 524.608)"/><rect width="11.282" height="11.282" x="913.596" y="547.172" fill="#8AE3FF" fill-opacity=".1" transform="rotate(-180 913.596 547.172)"/><rect width="33.846" height="33.846" x="1066.03" y="355.338" fill="#8AE3FF" fill-opacity=".1" transform="rotate(-180 1066.03 355.338)"/><rect width="33.846" height="33.846" x="1215.07" y="228.844" fill="#8AE3FF" fill-opacity=".1" transform="rotate(-180 1215.07 228.844)"/><rect width="33.846" height="33.846" x="1493.8" y="294.426" fill="#8AE3FF" fill-opacity=".1" transform="rotate(-180 1493.8 294.426)"/><rect width="33.846" height="33.846" x="838.381" y="272.646" fill="#8AE3FF" fill-opacity=".1" transform="rotate(-180 838.381 272.646)"/><rect width="33.846" height="33.846" x="714.277" y="156.065" fill="#8AE3FF" fill-opacity=".1" transform="rotate(-180 714.277 156.065)"/><rect width="11.282" height="11.282" x="744.363" y="197.433" fill="#8AE3FF" fill-opacity=".1" transform="rotate(-180 744.363 197.433)"/><rect width="67.692" height="67.692" x="1625.14" y="308.201" fill="#8AE3FF" fill-opacity=".1"/><rect width="67.692" height="67.692" x="1587.53" y="357.09" fill="#8AE3FF" fill-opacity=".1"/><rect width="33.846" height="33.846" x="1764.28" y="206.664" fill="#8AE3FF" fill-opacity=".1"/><rect width="11.282" height="11.282" x="1595.05" y="206.664" fill="#8AE3FF" fill-opacity=".1"/><rect width="33.846" height="33.846" x="1484.16" y="401.573" fill="#8AE3FF" fill-opacity=".1"/><rect width="33.846" height="33.846" x="1293.58" y="524.992" fill="#8AE3FF" fill-opacity=".1"/><rect width="33.846" height="33.846" x="1014.85" y="459.41" fill="#8AE3FF" fill-opacity=".1"/><rect width="11.282" height="11.282" x="1790.61" y="533.84" fill="#8AE3FF" fill-opacity=".1"/></g></svg>