<svg xmlns="http://www.w3.org/2000/svg" width="375" height="822" fill="none" viewBox="0 0 375 822"><mask id="mask0" width="375" height="814" x="0" y="0" mask-type="alpha" maskUnits="userSpaceOnUse"><rect width="375" height="814" fill="#C4C4C4"/></mask><g mask="url(#mask0)"><path fill="url(#paint0_linear)" d="M186 277.708H345V362.511V439H101.799L27 362.511H269.383L186 277.708ZM344.591 192.489L269.383 116H27V192.489V277.292H186L102.208 192.489H344.591Z"/><rect width="41.997" height="41.997" x="255.857" y="502.636" fill="#8AE3FF" fill-opacity=".1" transform="rotate(90 255.857 502.636)"/><rect width="41.997" height="41.997" x="225.525" y="479.304" fill="#8AE3FF" fill-opacity=".1" transform="rotate(90 225.525 479.304)"/><rect width="20.999" height="20.999" x="318.853" y="588.964" fill="#8AE3FF" fill-opacity=".1" transform="rotate(90 318.853 588.964)"/><rect width="37.331" height="37.331" x="163.331" y="745" fill="#8AE3FF" fill-opacity=".1" transform="rotate(90 163.331 745)"/><rect width="20.999" height="20.999" x="228.836" y="715.015" fill="#8AE3FF" fill-opacity=".1" transform="rotate(90 228.836 715.015)"/><rect width="7" height="7" x="318.852" y="483.97" fill="#8AE3FF" fill-opacity=".1" transform="rotate(90 318.852 483.97)"/><rect width="20.999" height="20.999" x="282.999" y="396" fill="#8AE3FF" fill-opacity=".1" transform="rotate(90 282.999 396)"/><rect width="20.999" height="20.999" x="121.354" y="290.538" fill="#8AE3FF" fill-opacity=".1" transform="rotate(90 121.354 290.538)"/><rect width="20.999" height="20.999" x="266.999" y="65" fill="#8AE3FF" fill-opacity=".1" transform="rotate(90 266.999 65)"/><rect width="20.999" height="20.999" x="107.999" y="657.695" fill="#8AE3FF" fill-opacity=".1" transform="rotate(90 107.999 657.695)"/><rect width="7" height="7" x="115.865" y="605.295" fill="#8AE3FF" fill-opacity=".1" transform="rotate(90 115.865 605.295)"/></g><defs><linearGradient id="paint0_linear" x1="64.558" x2="311.447" y1="401.148" y2="158.08" gradientUnits="userSpaceOnUse"><stop stop-color="#00007D"/><stop offset="1" stop-color="#2C48FF"/></linearGradient></defs></svg>