<svg xmlns="http://www.w3.org/2000/svg" width="348" height="977" fill="none" viewBox="0 0 348 977"><path fill="url(#paint0_linear)" d="M159 212.708H318V297.511V374H74.7995L0 297.511H242.383L159 212.708ZM317.591 127.489L242.383 51H0V127.489V212.292H159L75.2082 127.489H317.591Z"/><rect width="41.997" height="41.997" x="228.857" y="437.636" fill="#8AE3FF" fill-opacity=".1" transform="rotate(90 228.857 437.636)"/><rect width="41.997" height="41.997" x="198.525" y="414.304" fill="#8AE3FF" fill-opacity=".1" transform="rotate(90 198.525 414.304)"/><rect width="20.999" height="20.999" x="291.853" y="523.964" fill="#8AE3FF" fill-opacity=".1" transform="rotate(90 291.853 523.964)"/><rect width="37.331" height="37.331" x="136.331" y="680" fill="#8AE3FF" fill-opacity=".1" transform="rotate(90 136.331 680)"/><rect width="20.999" height="20.999" x="201.836" y="650.015" fill="#8AE3FF" fill-opacity=".1" transform="rotate(90 201.836 650.015)"/><rect width="7" height="7" x="291.852" y="418.97" fill="#8AE3FF" fill-opacity=".1" transform="rotate(90 291.852 418.97)"/><rect width="20.999" height="20.999" x="255.999" y="331" fill="#8AE3FF" fill-opacity=".1" transform="rotate(90 255.999 331)"/><rect width="20.999" height="20.999" x="94.354" y="225.538" fill="#8AE3FF" fill-opacity=".1" transform="rotate(90 94.3541 225.538)"/><rect width="20.999" height="20.999" x="239.999" fill="#8AE3FF" fill-opacity=".1" transform="rotate(90 239.999 0)"/><rect width="20.999" height="20.999" x="80.999" y="592.695" fill="#8AE3FF" fill-opacity=".1" transform="rotate(90 80.9987 592.695)"/><rect width="7" height="7" x="88.865" y="540.295" fill="#8AE3FF" fill-opacity=".1" transform="rotate(90 88.8652 540.295)"/><defs><linearGradient id="paint0_linear" x1="37.558" x2="284.447" y1="336.148" y2="93.08" gradientUnits="userSpaceOnUse"><stop stop-color="#00007D"/><stop offset="1" stop-color="#2C48FF"/></linearGradient></defs></svg>