<svg xmlns="http://www.w3.org/2000/svg" width="1800" height="1091" fill="none" viewBox="0 0 1800 1091"><mask id="mask0" width="1801" height="1091" x="0" y="0" mask-type="alpha" maskUnits="userSpaceOnUse"><rect width="1800" height="1090.49" x="1800" y="1090.49" fill="url(#paint0_linear)" transform="rotate(-180 1800 1090.49)"/></mask><g mask="url(#mask0)"><g opacity=".2"><path stroke="#fff" stroke-miterlimit="10" d="M1482.18 1114.1L1482.18 952.807L1643.48 1114.1L1482.18 1114.1Z"/><path stroke="#fff" stroke-miterlimit="10" d="M1724.32 952.807L1482.18 952.807L1482.18 1033.26L1804.77 1033.26L1724.32 952.807Z"/><path stroke="#fff" stroke-miterlimit="10" d="M1804.77 1114.1L1804.77 1033.26L1563.02 1033.26L1643.48 1114.1L1804.77 1114.1Z"/><path stroke="#fff" stroke-miterlimit="10" d="M1482.18 1033.26L1320.89 1033.26L1482.18 1194.56L1482.18 1033.26Z"/><path stroke="#fff" stroke-miterlimit="10" d="M1159.59 1033.26L1159.59 871.97L1320.89 1033.26L1159.59 1033.26Z"/><path stroke="#fff" stroke-miterlimit="10" d="M1401.73 871.97L1159.59 871.97L1159.59 952.807L1482.18 952.807L1401.73 871.97Z"/><path stroke="#fff" stroke-miterlimit="10" d="M1159.59 1114.1L1159.59 1033.26L1320.89 1033.26L1401.72 1114.1L1159.59 1114.1Z"/><path stroke="#fff" stroke-miterlimit="10" d="M1482.18 1033.26L1482.18 952.807L1240.43 952.807L1320.89 1033.26L1482.18 1033.26Z"/><path stroke="#fff" stroke-miterlimit="10" d="M1159.59 952.807L998.676 952.807L1159.59 1114.1L1159.59 952.807Z"/><path stroke="#fff" stroke-miterlimit="10" d="M837.38 952.807L837.38 791.512L998.675 952.807L837.38 952.807Z"/><path stroke="#fff" stroke-miterlimit="10" d="M1159.59 1033.26L837.381 1033.26L917.839 1114.1L1159.59 1114.1L1159.59 1033.26Z"/><path stroke="#fff" stroke-miterlimit="10" d="M1079.14 791.512L837.383 791.512L837.383 871.97L1159.59 871.97L1079.14 791.512Z"/><path stroke="#fff" stroke-miterlimit="10" d="M837.382 1033.26L837.382 952.807L998.677 952.807L1079.13 1033.26L837.382 1033.26Z"/><path stroke="#fff" stroke-miterlimit="10" d="M1159.59 952.807L1159.59 871.97L917.841 871.97L998.678 952.807L1159.59 952.807Z"/><path stroke="#fff" stroke-miterlimit="10" d="M837.385 871.97L676.091 871.97L837.385 1033.26L837.385 871.97Z"/><path stroke="#fff" stroke-miterlimit="10" d="M514.794 871.97L514.794 710.675L676.089 871.97L514.794 871.97Z"/><path stroke="#fff" stroke-miterlimit="10" d="M837.385 952.807L514.796 952.807L595.253 1033.26L837.385 1033.26L837.385 952.807Z"/><path stroke="#fff" stroke-miterlimit="10" d="M756.547 710.675L514.794 710.675L514.794 791.512L837.384 791.512L756.547 710.675Z"/><path stroke="#fff" stroke-miterlimit="10" d="M514.796 952.807L514.796 871.969L676.091 871.97L756.548 952.807L514.796 952.807Z"/><path stroke="#fff" stroke-miterlimit="10" d="M837.384 871.97L837.384 791.512L595.252 791.512L676.089 871.97L837.384 871.97Z"/><path stroke="#fff" stroke-miterlimit="10" d="M514.791 791.512L353.496 791.512L514.791 952.807L514.791 791.512Z"/><path stroke="#fff" stroke-miterlimit="10" d="M192.206 791.512L192.206 630.217L353.501 791.512L192.206 791.512Z"/><path stroke="#fff" stroke-miterlimit="10" d="M514.791 871.97L192.202 871.97L272.659 952.807L514.791 952.807L514.791 871.97Z"/><path stroke="#fff" stroke-miterlimit="10" d="M433.959 630.217L192.206 630.217L192.206 710.675L514.796 710.675L433.959 630.217Z"/><path stroke="#fff" stroke-miterlimit="10" d="M192.206 871.97L192.206 791.512L353.5 791.512L433.958 871.97L192.206 871.97Z"/><path stroke="#fff" stroke-miterlimit="10" d="M514.796 791.512L514.796 710.675L272.664 710.675L353.501 791.512L514.796 791.512Z"/><path stroke="#fff" stroke-miterlimit="10" d="M192.206 710.675L30.9116 710.675L192.206 871.97L192.206 710.675Z"/><path stroke="#fff" stroke-miterlimit="10" d="M-130.383 710.675L-130.383 549.38L30.9114 710.675L-130.383 710.675Z"/><path stroke="#fff" stroke-miterlimit="10" d="M192.206 791.512L-130.383 791.512L-49.9255 871.97L192.206 871.97L192.206 791.512Z"/><path stroke="#fff" stroke-miterlimit="10" d="M111.369 549.38L-130.383 549.38L-130.383 630.217L192.206 630.217L111.369 549.38Z"/><path stroke="#fff" stroke-miterlimit="10" d="M-130.384 791.512L-130.384 710.675L30.9108 710.675L111.368 791.512L-130.384 791.512Z"/><path stroke="#fff" stroke-miterlimit="10" d="M192.206 710.675L192.206 630.217L-49.9258 630.217L30.9113 710.675L192.206 710.675Z"/><path stroke="#fff" stroke-miterlimit="10" d="M595.251 1194.56L595.251 1033.26L756.546 1194.56L595.251 1194.56Z"/><path stroke="#fff" stroke-miterlimit="10" d="M837.383 1033.26L595.251 1033.26L595.251 1114.1L917.841 1114.1L837.383 1033.26Z"/><path stroke="#fff" stroke-miterlimit="10" d="M272.66 1114.1L272.66 952.807L433.954 1114.1L272.66 1114.1Z"/><path stroke="#fff" stroke-miterlimit="10" d="M514.791 952.807L272.66 952.807L272.66 1033.26L595.249 1033.26L514.791 952.807Z"/><path stroke="#fff" stroke-miterlimit="10" d="M595.249 1114.1L595.249 1033.26L353.497 1033.26L433.954 1114.1L595.249 1114.1Z"/><path stroke="#fff" stroke-miterlimit="10" d="M272.66 1033.26L111.365 1033.26L272.66 1194.56L272.66 1033.26Z"/><path stroke="#fff" stroke-miterlimit="10" d="M-49.9276 1033.26L-49.9276 871.97L111.367 1033.26L-49.9276 1033.26Z"/><path stroke="#fff" stroke-miterlimit="10" d="M192.204 871.97L-49.9276 871.969L-49.9277 952.807L272.662 952.807L192.204 871.97Z"/><path stroke="#fff" stroke-miterlimit="10" d="M-49.9292 1114.1L-49.9291 1033.26L111.366 1033.26L192.203 1114.1L-49.9292 1114.1Z"/><path stroke="#fff" stroke-miterlimit="10" d="M272.662 1033.26L272.662 952.807L30.9094 952.807L111.367 1033.26L272.662 1033.26Z"/></g></g><defs><linearGradient id="paint0_linear" x1="2012.3" x2="2751.79" y1="2053.31" y2="834.521" gradientUnits="userSpaceOnUse"><stop offset="0" stop-color="#181878"/><stop offset=".998" stop-color="#187FC4"/></linearGradient></defs></svg>