<svg xmlns="http://www.w3.org/2000/svg" width="1800" height="560" fill="none" viewBox="0 0 1800 560"><mask id="mask0" width="1800" height="560" x="0" y="0" mask-type="alpha" maskUnits="userSpaceOnUse"><rect width="1800" height="560" x="1800" y="560" fill="url(#paint0_linear)" transform="rotate(-180 1800 560)"/></mask><g mask="url(#mask0)"><g opacity=".3"><path stroke="#2C48FF" stroke-miterlimit="10" d="M1482.18 584.102L1482.18 422.807L1643.48 584.102L1482.18 584.102Z"/><path stroke="#2C48FF" stroke-miterlimit="10" d="M1724.32 422.807L1482.18 422.807L1482.18 503.264L1804.77 503.265L1724.32 422.807Z"/><path stroke="#2C48FF" stroke-miterlimit="10" d="M1804.77 584.102L1804.77 503.265L1563.02 503.265L1643.48 584.102L1804.77 584.102Z"/><path stroke="#2C48FF" stroke-miterlimit="10" d="M1482.18 503.264L1320.89 503.264L1482.18 664.559L1482.18 503.264Z"/><path stroke="#2C48FF" stroke-miterlimit="10" d="M1159.59 503.264L1159.59 341.97L1320.89 503.264L1159.59 503.264Z"/><path stroke="#2C48FF" stroke-miterlimit="10" d="M1401.73 341.97L1159.59 341.97L1159.59 422.807L1482.18 422.807L1401.73 341.97Z"/><path stroke="#2C48FF" stroke-miterlimit="10" d="M1159.59 584.101L1159.59 503.264L1320.89 503.264L1401.72 584.102L1159.59 584.101Z"/><path stroke="#2C48FF" stroke-miterlimit="10" d="M1482.18 503.264L1482.18 422.807L1240.43 422.807L1320.89 503.264L1482.18 503.264Z"/><path stroke="#2C48FF" stroke-miterlimit="10" d="M1159.59 422.807L998.676 422.807L1159.59 584.102L1159.59 422.807Z"/><path stroke="#2C48FF" stroke-miterlimit="10" d="M837.38 422.807L837.38 261.512L998.675 422.807L837.38 422.807Z"/><path stroke="#2C48FF" stroke-miterlimit="10" d="M1159.59 503.264L837.382 503.264L917.839 584.102L1159.59 584.102L1159.59 503.264Z"/><path stroke="#2C48FF" stroke-miterlimit="10" d="M1079.14 261.512L837.384 261.512L837.384 341.97L1159.59 341.97L1079.14 261.512Z"/><path stroke="#2C48FF" stroke-miterlimit="10" d="M837.382 503.265L837.382 422.807L998.677 422.807L1079.13 503.265L837.382 503.265Z"/><path stroke="#2C48FF" stroke-miterlimit="10" d="M1159.59 422.807L1159.59 341.97L917.841 341.97L998.678 422.807L1159.59 422.807Z"/><path stroke="#2C48FF" stroke-miterlimit="10" d="M837.386 341.97L676.091 341.97L837.386 503.264L837.386 341.97Z"/><path stroke="#2C48FF" stroke-miterlimit="10" d="M514.795 341.97L514.795 180.675L676.09 341.97L514.795 341.97Z"/><path stroke="#2C48FF" stroke-miterlimit="10" d="M837.386 422.807L514.796 422.807L595.254 503.264L837.386 503.264L837.386 422.807Z"/><path stroke="#2C48FF" stroke-miterlimit="10" d="M756.547 180.675L514.794 180.675L514.794 261.512L837.384 261.512L756.547 180.675Z"/><path stroke="#2C48FF" stroke-miterlimit="10" d="M514.796 422.807L514.796 341.969L676.091 341.97L756.549 422.807L514.796 422.807Z"/><path stroke="#2C48FF" stroke-miterlimit="10" d="M837.384 341.97L837.384 261.512L595.252 261.512L676.089 341.97L837.384 341.97Z"/><path stroke="#2C48FF" stroke-miterlimit="10" d="M514.791 261.512L353.496 261.512L514.791 422.807L514.791 261.512Z"/><path stroke="#2C48FF" stroke-miterlimit="10" d="M192.206 261.512L192.206 100.217L353.501 261.512L192.206 261.512Z"/><path stroke="#2C48FF" stroke-miterlimit="10" d="M514.791 341.97L192.201 341.97L272.659 422.807L514.791 422.807L514.791 341.97Z"/><path stroke="#2C48FF" stroke-miterlimit="10" d="M433.959 100.217L192.206 100.217L192.206 180.675L514.796 180.675L433.959 100.217Z"/><path stroke="#2C48FF" stroke-miterlimit="10" d="M192.206 341.97L192.206 261.512L353.5 261.512L433.958 341.97L192.206 341.97Z"/><path stroke="#2C48FF" stroke-miterlimit="10" d="M514.796 261.512L514.796 180.675L272.664 180.675L353.501 261.512L514.796 261.512Z"/><path stroke="#2C48FF" stroke-miterlimit="10" d="M192.207 180.675L30.9118 180.675L192.207 341.97L192.207 180.675Z"/><path stroke="#2C48FF" stroke-miterlimit="10" d="M-130.383 180.675L-130.383 19.3797L30.9116 180.675L-130.383 180.675Z"/><path stroke="#2C48FF" stroke-miterlimit="10" d="M192.207 261.512L-130.383 261.512L-49.9254 341.97L192.207 341.97L192.207 261.512Z"/><path stroke="#2C48FF" stroke-miterlimit="10" d="M111.369 19.3798L-130.384 19.3797L-130.384 100.217L192.206 100.217L111.369 19.3798Z"/><path stroke="#2C48FF" stroke-miterlimit="10" d="M-130.384 261.512L-130.384 180.675L30.911 180.675L111.369 261.512L-130.384 261.512Z"/><path stroke="#2C48FF" stroke-miterlimit="10" d="M192.206 180.675L192.206 100.217L-49.9258 100.217L30.9113 180.675L192.206 180.675Z"/><path stroke="#2C48FF" stroke-miterlimit="10" d="M595.251 664.559L595.251 503.264L756.546 664.559L595.251 664.559Z"/><path stroke="#2C48FF" stroke-miterlimit="10" d="M837.383 503.264L595.251 503.264L595.251 584.101L917.841 584.102L837.383 503.264Z"/><path stroke="#2C48FF" stroke-miterlimit="10" d="M272.659 584.102L272.659 422.807L433.954 584.102L272.659 584.102Z"/><path stroke="#2C48FF" stroke-miterlimit="10" d="M514.791 422.807L272.659 422.807L272.659 503.264L595.249 503.264L514.791 422.807Z"/><path stroke="#2C48FF" stroke-miterlimit="10" d="M595.249 584.102L595.249 503.265L353.497 503.265L433.954 584.102L595.249 584.102Z"/><path stroke="#2C48FF" stroke-miterlimit="10" d="M272.66 503.264L111.365 503.264L272.66 664.559L272.66 503.264Z"/><path stroke="#2C48FF" stroke-miterlimit="10" d="M-49.9276 503.264L-49.9276 341.97L111.367 503.264L-49.9276 503.264Z"/><path stroke="#2C48FF" stroke-miterlimit="10" d="M192.204 341.97L-49.9275 341.969L-49.9275 422.807L272.662 422.807L192.204 341.97Z"/><path stroke="#2C48FF" stroke-miterlimit="10" d="M-49.9288 584.101L-49.9288 503.264L111.366 503.264L192.203 584.101L-49.9288 584.101Z"/><path stroke="#2C48FF" stroke-miterlimit="10" d="M272.662 503.264L272.662 422.807L30.9096 422.807L111.367 503.264L272.662 503.264Z"/></g></g><defs><linearGradient id="paint0_linear" x1="2012.3" x2="2255.49" y1="1054.44" y2="273.913" gradientUnits="userSpaceOnUse"><stop offset="0" stop-color="#181878"/><stop offset=".998" stop-color="#187FC4"/></linearGradient></defs></svg>