<svg xmlns="http://www.w3.org/2000/svg" width="1685" height="866" fill="none" viewBox="0 0 1685 866"><rect width="66.697" height="66.697" x="478.589" y="395.873" fill="#8AE3FF" fill-opacity=".1" transform="rotate(-180 478.589 395.873)"/><rect width="66.697" height="66.697" x="515.645" y="347.703" fill="#8AE3FF" fill-opacity=".1" transform="rotate(-180 515.645 347.703)"/><rect width="33.349" height="33.349" x="341.489" y="495.919" fill="#8AE3FF" fill-opacity=".1" transform="rotate(-180 341.489 495.919)"/><rect width="33.349" height="33.349" x="219.21" y="381.052" fill="#8AE3FF" fill-opacity=".1" transform="rotate(-180 219.21 381.052)"/><rect width="11.116" height="11.116" x="534.175" y="473.687" fill="#8AE3FF" fill-opacity=".1" transform="rotate(-180 534.175 473.687)"/><rect width="11.116" height="11.116" x="508.234" y="495.919" fill="#8AE3FF" fill-opacity=".1" transform="rotate(-180 508.234 495.919)"/><rect width="33.349" height="33.349" x="658.425" y="306.902" fill="#8AE3FF" fill-opacity=".1" transform="rotate(-180 658.425 306.902)"/><rect width="33.349" height="33.349" x="805.281" y="182.266" fill="#8AE3FF" fill-opacity=".1" transform="rotate(-180 805.281 182.266)"/><rect width="33.349" height="33.349" x="1079.91" y="246.885" fill="#8AE3FF" fill-opacity=".1" transform="rotate(-180 1079.91 246.885)"/><rect width="33.349" height="33.349" x="434.125" y="225.424" fill="#8AE3FF" fill-opacity=".1" transform="rotate(-180 434.125 225.424)"/><rect width="33.349" height="33.349" x="311.844" y="110.557" fill="#8AE3FF" fill-opacity=".1" transform="rotate(-180 311.844 110.557)"/><rect width="11.116" height="11.116" x="341.489" y="151.316" fill="#8AE3FF" fill-opacity=".1" transform="rotate(-180 341.489 151.316)"/><rect width="66.697" height="66.697" x="1209.32" y="260.458" fill="#8AE3FF" fill-opacity=".1"/><rect width="66.697" height="66.697" x="1172.27" y="308.629" fill="#8AE3FF" fill-opacity=".1"/><rect width="33.349" height="33.349" x="1346.43" y="160.413" fill="#8AE3FF" fill-opacity=".1"/><rect width="33.349" height="33.349" x="1468.7" y="275.28" fill="#8AE3FF" fill-opacity=".1"/><rect width="11.116" height="11.116" x="1179.68" y="160.413" fill="#8AE3FF" fill-opacity=".1"/><rect width="33.349" height="33.349" x="1070.42" y="352.459" fill="#8AE3FF" fill-opacity=".1"/><rect width="33.349" height="33.349" x="882.633" y="474.066" fill="#8AE3FF" fill-opacity=".1"/><rect width="33.349" height="33.349" x="608" y="409.446" fill="#8AE3FF" fill-opacity=".1"/><rect width="33.349" height="33.349" x="1420.91" y="515.775" fill="#8AE3FF" fill-opacity=".1"/><rect width="11.116" height="11.116" x="1372.36" y="482.783" fill="#8AE3FF" fill-opacity=".1"/></svg>