<svg xmlns="http://www.w3.org/2000/svg" width="2432" height="1096" fill="none" viewBox="0 0 2432 1096"><g style="mix-blend-mode:overlay" opacity=".1"><circle cx="1208.83" cy="548" r="312.761" fill="#fff"/></g><g style="mix-blend-mode:overlay" opacity=".1"><circle cx="1208.83" cy="548" r="383.6" fill="#fff"/></g><g style="mix-blend-mode:overlay" opacity=".1"><circle cx="1208.83" cy="548" r="461.122" fill="#fff"/></g><g style="mix-blend-mode:overlay" opacity=".1"><circle cx="1208.83" cy="548" r="548" fill="#fff"/></g><circle cx="1208.83" cy="548" r="240.585" fill="url(#paint0_radial)" fill-opacity=".4"/><rect width="66.697" height="66.697" x="844.417" y="570.873" fill="#8AE3FF" fill-opacity=".1" transform="rotate(-180 844.417 570.873)"/><rect width="66.697" height="66.697" x="881.473" y="522.703" fill="#8AE3FF" fill-opacity=".1" transform="rotate(-180 881.473 522.703)"/><rect width="33.349" height="33.349" x="707.317" y="670.919" fill="#8AE3FF" fill-opacity=".1" transform="rotate(-180 707.317 670.919)"/><rect width="33.349" height="33.349" x="33.349" y="1040.38" fill="#8AE3FF" fill-opacity=".1" transform="rotate(-180 33.3486 1040.38)"/><rect width="59.286" height="59.286" x="247.978" y="645.745" fill="#8AE3FF" fill-opacity=".1" transform="rotate(-180 247.978 645.745)"/><rect width="33.349" height="33.349" x="585.039" y="556.052" fill="#8AE3FF" fill-opacity=".1" transform="rotate(-180 585.039 556.052)"/><rect width="11.116" height="11.116" x="900.003" y="648.687" fill="#8AE3FF" fill-opacity=".1" transform="rotate(-180 900.003 648.687)"/><rect width="11.116" height="11.116" x="874.062" y="670.919" fill="#8AE3FF" fill-opacity=".1" transform="rotate(-180 874.062 670.919)"/><rect width="33.349" height="33.349" x="1024.25" y="481.902" fill="#8AE3FF" fill-opacity=".1" transform="rotate(-180 1024.25 481.902)"/><rect width="33.349" height="33.349" x="1171.11" y="357.266" fill="#8AE3FF" fill-opacity=".1" transform="rotate(-180 1171.11 357.266)"/><rect width="33.349" height="33.349" x="1445.74" y="421.885" fill="#8AE3FF" fill-opacity=".1" transform="rotate(-180 1445.74 421.885)"/><rect width="33.349" height="33.349" x="799.953" y="400.425" fill="#8AE3FF" fill-opacity=".1" transform="rotate(-180 799.953 400.425)"/><rect width="33.349" height="33.349" x="677.672" y="285.557" fill="#8AE3FF" fill-opacity=".1" transform="rotate(-180 677.672 285.557)"/><rect width="11.116" height="11.116" x="707.317" y="326.316" fill="#8AE3FF" fill-opacity=".1" transform="rotate(-180 707.317 326.316)"/><rect width="66.697" height="66.697" x="1575.15" y="435.458" fill="#8AE3FF" fill-opacity=".1"/><rect width="66.697" height="66.697" x="1538.1" y="483.629" fill="#8AE3FF" fill-opacity=".1"/><rect width="33.349" height="33.349" x="1712.25" y="335.413" fill="#8AE3FF" fill-opacity=".1"/><rect width="33.349" height="33.349" x="2397.79" y="175.138" fill="#8AE3FF" fill-opacity=".1"/><rect width="59.286" height="59.286" x="2171.59" y="360.587" fill="#8AE3FF" fill-opacity=".1"/><rect width="33.349" height="33.349" x="1834.53" y="450.28" fill="#8AE3FF" fill-opacity=".1"/><rect width="11.116" height="11.116" x="1545.51" y="335.413" fill="#8AE3FF" fill-opacity=".1"/><rect width="33.349" height="33.349" x="1436.25" y="527.459" fill="#8AE3FF" fill-opacity=".1"/><rect width="33.349" height="33.349" x="1248.46" y="649.066" fill="#8AE3FF" fill-opacity=".1"/><rect width="33.349" height="33.349" x="973.828" y="584.446" fill="#8AE3FF" fill-opacity=".1"/><rect width="33.349" height="33.349" x="1786.74" y="690.775" fill="#8AE3FF" fill-opacity=".1"/><rect width="11.116" height="11.116" x="1738.19" y="657.783" fill="#8AE3FF" fill-opacity=".1"/><path stroke="#fff" d="M1229.59 439.416L1286.77 486.633L1101.27 506.227L1100.09 506.353L1101.01 507.11L1165.06 559.876L1044.43 572.48L1044 512.789L1044 512.788L1043.57 458.85L1229.59 439.416Z" opacity=".8"/><path stroke="#fff" d="M1230.14 438.569L1181.54 354.159L1237.59 400.652L1286.19 484.855L1230.14 438.569Z" opacity=".8"/><path stroke="#fff" d="M1052.12 420.245L1237.71 400.855L1287.19 486.588L1101.6 506.193L1052.12 420.245Z" opacity=".6"/><path stroke="#fff" d="M1101.72 506.397L1053.11 421.975L1115.67 473.681L1164.48 558.104L1101.72 506.397Z" opacity=".8"/><path stroke="#fff" d="M994.513 486.556L1115.78 473.884L1165.48 559.833L1044.21 572.504L994.513 486.556Z" opacity=".6"/><path stroke="#fff" d="M1043.42 571.147L994.193 486.002L993.761 425.891L993.761 425.891L993.343 373.605L1042.57 458.536L1043 512.795L1043 512.796L1043.42 571.147Z" opacity=".7"/><path stroke="#fff" d="M1043.34 457.869L993.648 372.136L1179.45 352.532L1228.93 438.48L1043.34 457.869Z" opacity=".7"/><path stroke="#fff" d="M1179.57 352.52L1236.75 399.951L1051.25 419.33L1050.06 419.454L1050.98 420.213L1114.82 472.979L994.191 485.583L993.762 425.892L993.762 425.891L993.332 372.17L1179.57 352.52Z" opacity=".6"/><path stroke="#fff" d="M1236.29 761.55L1179.11 714.118L1364.61 694.522L1365.8 694.397L1364.88 693.639L1301.04 641.088L1421.67 628.27L1422.1 687.961V687.962L1422.53 741.9L1236.29 761.55Z"/><path stroke="#fff" d="M1422.1 687.961L1422.1 687.961L1422.52 740.459L1373.29 655.316L1372.85 601.273L1372.85 601.273L1372.43 542.917L1421.67 627.851L1422.1 687.961Z" opacity=".8"/><path stroke="#fff" d="M1178.15 713.213L1128.67 627.264L1314.04 607.875L1363.74 693.608L1178.15 713.213Z"/><path stroke="#fff" d="M1251.39 555.977L1313.93 607.673L1362.73 691.876L1300.19 640.388L1251.39 555.977Z"/><path stroke="#fff" d="M1300.08 640.185L1250.38 554.237L1371.65 541.565L1421.35 627.299L1300.08 640.185Z" opacity=".8"/><path stroke="#fff" d="M1186.05 674.653L1129.08 627.222L1314.37 607.843L1315.55 607.719L1314.63 606.96L1250.8 554.194L1371.43 541.589L1371.85 601.281V601.282L1372.28 655.003L1186.05 674.653Z" opacity=".6"/><path stroke="#fff" d="M1129.68 629.02L1185.5 675.499L1234.3 759.9L1178.27 713.417L1129.68 629.02Z" opacity=".7"/><path stroke="#fff" d="M1186.71 675.588L1372.52 655.983L1422.21 741.933L1236.41 761.538L1186.71 675.588Z" opacity=".5"/><rect width="18" height="18" x="1195.83" y="541" fill="#8AE3FF"/><rect width="18" height="18" x="1185.83" y="554" fill="#8AE3FF"/><rect width="9" height="9" x="1232.83" y="514" fill="#8AE3FF"/><rect width="9" height="9" x="1330.83" y="390" fill="#8AE3FF"/><rect width="16" height="16" x="1330.83" y="478" fill="#8AE3FF"/><rect width="9" height="9" x="1265.83" y="545" fill="#8AE3FF"/><rect width="3" height="3" x="1257.83" y="534" fill="#8AE3FF"/><rect width="3" height="3" x="1264.83" y="528" fill="#8AE3FF"/><rect width="3" height="3" x="1180.83" y="520" fill="#8AE3FF"/><rect width="3" height="3" x="1187.83" y="514" fill="#8AE3FF"/><rect width="9" height="9" x="1127.83" y="584" fill="#8AE3FF"/><rect width="9" height="9" x="1172.83" y="595" fill="#8AE3FF"/><rect width="3" height="3" x="1164.83" y="584" fill="#8AE3FF"/><rect width="3" height="3" x="1171.83" y="578" fill="#8AE3FF"/><rect width="9" height="9" x="1095.83" y="610" fill="#8AE3FF"/><rect width="9" height="9" x="1099.83" y="603" fill="#8AE3FF"/><rect width="9" height="9" x="1207.83" y="587" fill="#8AE3FF"/><rect width="9" height="9" x="1240.83" y="618" fill="#8AE3FF"/><rect width="3" height="3" x="1232.83" y="607" fill="#8AE3FF"/><rect width="3" height="3" x="1239.83" y="601" fill="#8AE3FF"/><defs><radialGradient id="paint0_radial" cx="0" cy="0" r="1" gradientTransform="translate(1208.83 548) rotate(90) scale(229.988)" gradientUnits="userSpaceOnUse"><stop stop-color="#00FFF0"/><stop offset="1" stop-color="#E1FBFF" stop-opacity="0"/></radialGradient></defs></svg>