<svg xmlns="http://www.w3.org/2000/svg" width="259" height="151" fill="none" viewBox="0 0 259 151"><path stroke="#2C48FF" stroke-linejoin="round" stroke-width=".8" d="M200.814 10.2759L210.552 117.068L53.3529 122.557L43.615 15.7655L200.814 10.2759Z"/><path stroke="#2C48FF" stroke-linejoin="round" stroke-width=".8" d="M208.613 1L218.351 107.792L61.1519 113.282L51.4141 6.48959L208.613 1Z"/><path stroke="#2C48FF" stroke-linejoin="round" stroke-width=".8" d="M208.613 1L218.351 107.792L210.552 117.068L200.814 10.2758L208.613 1Z"/><path stroke="#2C48FF" stroke-linejoin="round" stroke-width=".8" d="M218.351 107.792L210.552 117.068L53.3528 122.556L61.152 113.282L218.351 107.792Z"/><path stroke="#2C48FF" stroke-linejoin="round" stroke-width=".8" d="M61.1521 113.281L53.3529 122.556L43.615 15.765L51.4142 6.48926L61.1521 113.281Z"/><path stroke="#2C48FF" stroke-linejoin="round" stroke-width=".8" d="M51.4142 6.48959L208.613 1L200.814 10.2758L43.615 15.7653L51.4142 6.48959Z"/><path stroke="#2C48FF" stroke-miterlimit="10" stroke-width=".8" d="M135.852 45.7452L134.172 27.3164L63.7881 29.7739L65.4682 48.2036L135.852 45.7452Z"/><path stroke="#2C48FF" stroke-miterlimit="10" stroke-width=".8" d="M247.53 26.4805L251.891 74.2949L181.507 76.7524L177.147 28.938L247.53 26.4805Z"/><path stroke="#2C48FF" stroke-miterlimit="10" stroke-width=".8" d="M179.924 59.3947L196.19 41.6968L219.072 56.848L224.328 51.616L239.478 59.3947L249.823 51.616"/><path stroke="#2C48FF" stroke-miterlimit="10" stroke-width=".8" d="M194.014 51.6157L198.374 99.4302L127.991 101.889L123.631 54.0741L194.014 51.6157Z"/><path stroke="#2C48FF" stroke-linejoin="round" stroke-width=".8" d="M100.282 56.8511L65.5439 57.7457"/><path stroke="#2C48FF" stroke-linejoin="round" stroke-width=".8" d="M116.074 64.5234L66.1814 65.9364"/><path stroke="#2C48FF" stroke-linejoin="round" stroke-width=".8" d="M110.649 72.4971L66.7971 73.8476"/><path stroke="#2C48FF" stroke-linejoin="round" stroke-width=".8" d="M100.381 80.3984L67.3921 81.4935"/><path stroke="#2C48FF" stroke-linejoin="round" stroke-width=".8" d="M110.377 87.3813L67.9675 88.8874"/><path stroke="#2C48FF" stroke-linejoin="round" stroke-width=".8" d="M177.551 32.6118L142.814 33.5065"/><path stroke="#2C48FF" stroke-linejoin="round" stroke-width=".8" d="M178.221 40.7119L143.451 41.6966"/><path stroke="#2C48FF" stroke-miterlimit="10" stroke-width=".8" d="M98.1305 97.4214L102.491 145.236L32.1077 147.693L27.7478 99.8789L98.1305 97.4214Z"/><path stroke="#2C48FF" stroke-miterlimit="10" stroke-width=".8" d="M98.1309 97.4209L32.1074 147.693"/><path stroke="#2C48FF" stroke-miterlimit="10" stroke-width=".8" d="M27.7473 99.8789L102.491 145.235"/><path stroke="#2C48FF" stroke-linejoin="round" stroke-width=".8" d="M65.119 24.8478C66.3713 24.8478 67.3864 23.8327 67.3864 22.5804C67.3864 21.3281 66.3713 20.313 65.119 20.313C63.8667 20.313 62.8516 21.3281 62.8516 22.5804C62.8516 23.8327 63.8667 24.8478 65.119 24.8478Z"/><path stroke="#2C48FF" stroke-linejoin="round" stroke-width=".8" d="M71.8912 24.5978C73.1435 24.5978 74.1586 23.5827 74.1586 22.3304C74.1586 21.0782 73.1435 20.063 71.8912 20.063C70.6389 20.063 69.6238 21.0782 69.6238 22.3304C69.6238 23.5827 70.6389 24.5978 71.8912 24.5978Z"/><path stroke="#2C48FF" stroke-linejoin="round" stroke-width=".8" d="M78.6632 24.3478C79.9154 24.3478 80.9306 23.3327 80.9306 22.0804C80.9306 20.8282 79.9154 19.813 78.6632 19.813C77.4109 19.813 76.3958 20.8282 76.3958 22.0804C76.3958 23.3327 77.4109 24.3478 78.6632 24.3478Z"/><path stroke="#2C48FF" stroke-miterlimit="10" stroke-width=".8" d="M257.759 149.015L256.723 137.662L213.365 139.176L214.399 150.53L257.759 149.015Z"/><path stroke="#2C48FF" stroke-miterlimit="10" stroke-width=".8" d="M45.243 60.7847L15.5403 61.8223L16.5752 73.1753L46.515 72.1302"/><path stroke="#2C48FF" stroke-miterlimit="10" stroke-width=".8" d="M243.343 142.848L241.663 124.419L171.28 126.876L172.96 145.306L243.343 142.848Z"/><path stroke="#2C48FF" stroke-linejoin="round" stroke-width=".8" d="M182.74 140.779C185.463 140.779 187.67 138.571 187.67 135.848C187.67 133.126 185.463 130.918 182.74 130.918C180.018 130.918 177.81 133.126 177.81 135.848C177.81 138.571 180.018 140.779 182.74 140.779Z"/><path stroke="#2C48FF" stroke-miterlimit="10" stroke-width=".8" d="M42.5196 33.5054L1 34.9549L2.68016 53.3847L44.2956 51.9314"/></svg>