<svg xmlns="http://www.w3.org/2000/svg" width="1560" height="860" fill="none" viewBox="0 0 1560 860"><rect width="108.437" height="108.437" fill="#8AE3FF" fill-opacity=".1" transform="matrix(-1 0 0 1 1333.68 423.231)"/><rect width="108.437" height="108.437" fill="#8AE3FF" fill-opacity=".1" transform="matrix(-1 0 0 1 1393.92 501.547)"/><rect width="54.219" height="54.219" fill="#8AE3FF" fill-opacity=".1" transform="matrix(-1 0 0 1 1110.77 260.576)"/><rect width="96.389" height="96.389" fill="#8AE3FF" fill-opacity=".1" transform="matrix(-1 0 0 1 352.312 477)"/><rect width="54.219" height="54.219" fill="#8AE3FF" fill-opacity=".1" transform="matrix(-1 0 0 1 785.312 493)"/><rect width="18.073" height="18.073" fill="#8AE3FF" fill-opacity=".1" transform="matrix(-1 0 0 1 1381.87 260.576)"/><rect width="54.219" height="54.219" fill="#8AE3FF" fill-opacity=".1" transform="matrix(-1 0 0 1 1559.5 572.807)"/><rect width="54.219" height="54.219" fill="#8AE3FF" fill-opacity=".1" transform="matrix(-1 0 0 1 933.312 805)"/><rect width="18.073" height="18.073" fill="#8AE3FF" fill-opacity=".1" transform="matrix(-1 0 0 1 1068.61 784.689)"/></svg>