<svg xmlns="http://www.w3.org/2000/svg" width="752" height="198" fill="none" viewBox="0 0 752 198"><mask id="mask0" width="752" height="198" x="0" y="0" mask-type="alpha" maskUnits="userSpaceOnUse"><rect width="752" height="197.559" fill="url(#paint0_linear)" rx="1.425"/></mask><g mask="url(#mask0)"><rect width="22.602" height="20.878" x="105.458" y="87.659" fill="#8AE3FF" fill-opacity=".1"/><rect width="22.602" height="20.878" x="92.902" y="102.738" fill="#8AE3FF" fill-opacity=".1"/><rect width="11.301" height="10.439" x="151.918" y="56.343" fill="#8AE3FF" fill-opacity=".1"/><rect width="11.301" height="10.439" x="390.611" y="22.795" fill="#8AE3FF" fill-opacity=".1"/><rect width="20.09" height="18.558" x="310.006" y="98.013" fill="#8AE3FF" fill-opacity=".1"/><rect width="11.301" height="10.439" x="219.755" y="101.093" fill="#8AE3FF" fill-opacity=".1"/><rect width="3.767" height="3.48" x="95.413" y="56.343" fill="#8AE3FF" fill-opacity=".1"/><rect width="11.301" height="10.439" x="58.389" y="116.458" fill="#8AE3FF" fill-opacity=".1"/><rect width="11.301" height="10.439" x="-8.686" y="154.524" fill="#8AE3FF" fill-opacity=".1"/><rect width="11.301" height="10.439" x="188.907" y="161.164" fill="#8AE3FF" fill-opacity=".1"/><rect width="3.767" height="3.48" x="160.707" y="157.253" fill="#8AE3FF" fill-opacity=".1"/><rect width="20.801" height="19.214" x="663.651" y="99.558" fill="#8AE3FF" fill-opacity=".1" transform="rotate(180 663.651 99.5576)"/><rect width="20.801" height="19.214" x="675.207" y="85.681" fill="#8AE3FF" fill-opacity=".1" transform="rotate(180 675.207 85.6807)"/><rect width="10.4" height="9.607" x="620.894" y="128.379" fill="#8AE3FF" fill-opacity=".1" transform="rotate(180 620.894 128.379)"/><rect width="10.4" height="9.607" x="407.098" y="174.551" fill="#8AE3FF" fill-opacity=".1" transform="rotate(180 407.098 174.551)"/><rect width="18.489" height="17.079" x="519.579" y="126.88" fill="#8AE3FF" fill-opacity=".1" transform="rotate(180 519.579 126.88)"/><rect width="10.4" height="9.607" x="471.134" y="36.842" fill="#8AE3FF" fill-opacity=".1" transform="rotate(180 471.134 36.8418)"/><rect width="3.467" height="3.202" x="672.896" y="128.379" fill="#8AE3FF" fill-opacity=".1" transform="rotate(180 672.896 128.379)"/><rect width="10.4" height="9.607" x="706.97" y="73.055" fill="#8AE3FF" fill-opacity=".1" transform="rotate(180 706.97 73.0547)"/><rect width="10.4" height="9.607" x="586.853" y="31.912" fill="#8AE3FF" fill-opacity=".1" transform="rotate(180 586.853 31.9121)"/><rect width="3.467" height="3.202" x="612.806" y="35.511" fill="#8AE3FF" fill-opacity=".1" transform="rotate(180 612.806 35.5107)"/></g><defs><linearGradient id="paint0_linear" x1="88.816" x2="163.046" y1="174.407" y2="-108.143" gradientUnits="userSpaceOnUse"><stop stop-color="#00007D"/><stop offset="1" stop-color="#2C48FF"/></linearGradient></defs></svg>