<svg xmlns="http://www.w3.org/2000/svg" width="1800" height="579" fill="none" viewBox="0 0 1800 579"><mask id="mask0" width="1800" height="406" x="0" y="0" mask-type="alpha" maskUnits="userSpaceOnUse"><rect width="1800" height="406" fill="url(#paint0_linear)"/></mask><g mask="url(#mask0)"><g opacity=".3"><path stroke="#02007C" stroke-miterlimit="10" d="M741.011 -62.5791V52.6314L625.801 -62.5791L741.011 -62.5791Z"/><path stroke="#02007C" stroke-miterlimit="10" d="M568.06 52.6314L741.011 52.6314V-4.83838L510.59 -4.83838L568.06 52.6314Z"/><path stroke="#02007C" stroke-miterlimit="10" d="M971.434 -4.83838V110.372L856.224 -4.83838L971.434 -4.83838Z"/><path stroke="#02007C" stroke-miterlimit="10" d="M798.481 110.372L971.433 110.372V52.6313L741.012 52.6313L798.481 110.372Z"/><path stroke="#02007C" stroke-miterlimit="10" d="M741.012 -4.83838V52.6314L913.692 52.6314L856.222 -4.83838L741.012 -4.83838Z"/><path stroke="#02007C" stroke-miterlimit="10" d="M971.435 52.6314L1086.37 52.6314L971.435 -62.5791V52.6314Z"/><path stroke="#02007C" stroke-miterlimit="10" d="M1201.59 52.6316V167.842L1086.38 52.6316L1201.59 52.6316Z"/><path stroke="#02007C" stroke-miterlimit="10" d="M1028.9 167.842L1201.58 167.842V110.373L971.433 110.373L1028.9 167.842Z"/><path stroke="#02007C" stroke-miterlimit="10" d="M1201.58 -4.83838V52.6314L1086.37 52.6314L1028.9 -4.83838L1201.58 -4.83838Z"/><path stroke="#02007C" stroke-miterlimit="10" d="M971.433 52.6316V110.372L1144.11 110.372L1086.37 52.6316L971.433 52.6316Z"/><path stroke="#02007C" stroke-miterlimit="10" d="M1201.58 110.372L1316.79 110.372L1201.58 -4.83813V110.372Z"/><path stroke="#02007C" stroke-miterlimit="10" d="M1432 110.373V225.583L1316.79 110.373L1432 110.373Z"/><path stroke="#02007C" stroke-miterlimit="10" d="M1201.58 52.6316L1432 52.6316L1374.53 -4.83813L1201.58 -4.83813V52.6316Z"/><path stroke="#02007C" stroke-miterlimit="10" d="M1259.32 225.583L1432.01 225.583V167.842L1201.58 167.842L1259.32 225.583Z"/><path stroke="#02007C" stroke-miterlimit="10" d="M1432 52.6316V110.372L1316.79 110.372L1259.32 52.6316L1432 52.6316Z"/><path stroke="#02007C" stroke-miterlimit="10" d="M1201.58 110.373V167.842L1374.54 167.842L1316.79 110.373L1201.58 110.373Z"/><path stroke="#02007C" stroke-miterlimit="10" d="M1432.01 167.842H1547.22L1432.01 52.6313V167.842Z"/><path stroke="#02007C" stroke-miterlimit="10" d="M1662.42 167.842V283.053L1547.21 167.842H1662.42Z"/><path stroke="#02007C" stroke-miterlimit="10" d="M1432.01 110.372L1662.43 110.372L1604.96 52.6313L1432.01 52.6313V110.372Z"/><path stroke="#02007C" stroke-miterlimit="10" d="M1489.74 283.052H1662.42V225.583L1432 225.583L1489.74 283.052Z"/><path stroke="#02007C" stroke-miterlimit="10" d="M1662.42 110.372V167.842L1547.21 167.842L1489.74 110.372L1662.42 110.372Z"/><path stroke="#02007C" stroke-miterlimit="10" d="M1432 167.842V225.583L1604.95 225.583L1547.21 167.842H1432Z"/><path stroke="#02007C" stroke-miterlimit="10" d="M1662.42 225.583H1777.63L1662.42 110.373V225.583Z"/><path stroke="#02007C" stroke-miterlimit="10" d="M1892.85 225.583V340.794L1777.63 225.583H1892.85Z"/><path stroke="#02007C" stroke-miterlimit="10" d="M1662.42 167.842L1892.84 167.842L1835.38 110.373L1662.42 110.373V167.842Z"/><path stroke="#02007C" stroke-miterlimit="10" d="M1720.16 340.794H1892.84V283.053H1662.42L1720.16 340.794Z"/><path stroke="#02007C" stroke-miterlimit="10" d="M1892.85 167.842V225.583L1777.63 225.583L1720.17 167.842L1892.85 167.842Z"/><path stroke="#02007C" stroke-miterlimit="10" d="M1662.42 225.583V283.053H1835.38L1777.63 225.583H1662.42Z"/><path stroke="#02007C" stroke-miterlimit="10" d="M1604.96 -62.5791V52.6314L1489.75 -62.5791L1604.96 -62.5791Z"/><path stroke="#02007C" stroke-miterlimit="10" d="M1432 52.6314L1604.96 52.6314V-4.83838L1374.54 -4.83838L1432 52.6314Z"/><path stroke="#02007C" stroke-miterlimit="10" d="M1835.38 -4.83838V110.372L1720.17 -4.83838L1835.38 -4.83838Z"/><path stroke="#02007C" stroke-miterlimit="10" d="M1662.42 110.372L1835.38 110.372V52.6313L1604.96 52.6313L1662.42 110.372Z"/><path stroke="#02007C" stroke-miterlimit="10" d="M1604.96 -4.83838V52.6314L1777.64 52.6314L1720.17 -4.83838L1604.96 -4.83838Z"/></g></g><mask id="mask1" width="1801" height="401" x="-1" y="179" mask-type="alpha" maskUnits="userSpaceOnUse"><rect width="1799" height="399" x="1799.5" y="578.5" fill="url(#paint1_linear)" stroke="#02007C" transform="rotate(180 1799.5 578.5)"/></mask><g mask="url(#mask1)"><g opacity=".3"><path stroke="#02007C" stroke-miterlimit="10" d="M1058.7 640.692L1058.7 525.481L1173.91 640.692L1058.7 640.692Z"/><path stroke="#02007C" stroke-miterlimit="10" d="M1231.65 525.481L1058.7 525.481L1058.7 582.951L1289.12 582.951L1231.65 525.481Z"/><path stroke="#02007C" stroke-miterlimit="10" d="M828.278 582.951L828.278 467.741L943.488 582.951L828.278 582.951Z"/><path stroke="#02007C" stroke-miterlimit="10" d="M1001.23 467.741L828.279 467.741L828.279 525.481L1058.7 525.481L1001.23 467.741Z"/><path stroke="#02007C" stroke-miterlimit="10" d="M1058.7 582.951L1058.7 525.481L886.02 525.481L943.49 582.951L1058.7 582.951Z"/><path stroke="#02007C" stroke-miterlimit="10" d="M828.278 525.481L713.339 525.481L828.278 640.692L828.278 525.481Z"/><path stroke="#02007C" stroke-miterlimit="10" d="M598.126 525.481L598.126 410.271L713.337 525.481L598.126 525.481Z"/><path stroke="#02007C" stroke-miterlimit="10" d="M770.81 410.271L598.129 410.271L598.129 467.741L828.279 467.741L770.81 410.271Z"/><path stroke="#02007C" stroke-miterlimit="10" d="M598.128 582.951L598.128 525.481L713.339 525.481L770.809 582.951L598.128 582.951Z"/><path stroke="#02007C" stroke-miterlimit="10" d="M828.279 525.481L828.279 467.741L655.599 467.741L713.34 525.481L828.279 525.481Z"/><path stroke="#02007C" stroke-miterlimit="10" d="M598.13 467.741L482.919 467.741L598.13 582.951L598.13 467.741Z"/><path stroke="#02007C" stroke-miterlimit="10" d="M367.708 467.74L367.708 352.53L482.919 467.74L367.708 467.74Z"/><path stroke="#02007C" stroke-miterlimit="10" d="M598.13 525.481L367.709 525.481L425.179 582.951L598.13 582.951L598.13 525.481Z"/><path stroke="#02007C" stroke-miterlimit="10" d="M540.388 352.53L367.708 352.53L367.708 410.271L598.129 410.271L540.388 352.53Z"/><path stroke="#02007C" stroke-miterlimit="10" d="M367.709 525.481L367.709 467.74L482.92 467.74L540.39 525.481L367.709 525.481Z"/><path stroke="#02007C" stroke-miterlimit="10" d="M598.129 467.74L598.129 410.27L425.178 410.27L482.918 467.74L598.129 467.74Z"/><path stroke="#02007C" stroke-miterlimit="10" d="M367.706 410.271L252.496 410.271L367.706 525.481L367.706 410.271Z"/><path stroke="#02007C" stroke-miterlimit="10" d="M137.288 410.271L137.287 295.06L252.498 410.271L137.288 410.271Z"/><path stroke="#02007C" stroke-miterlimit="10" d="M367.706 467.741L137.285 467.741L194.755 525.481L367.706 525.481L367.706 467.741Z"/><path stroke="#02007C" stroke-miterlimit="10" d="M309.968 295.061L137.288 295.061L137.288 352.53L367.709 352.53L309.968 295.061Z"/><path stroke="#02007C" stroke-miterlimit="10" d="M137.287 467.741L137.287 410.271L252.498 410.271L309.968 467.741L137.287 467.741Z"/><path stroke="#02007C" stroke-miterlimit="10" d="M367.709 410.271L367.709 352.53L194.758 352.53L252.498 410.271L367.709 410.271Z"/><path stroke="#02007C" stroke-miterlimit="10" d="M137.288 352.53L22.0775 352.53L137.288 467.741L137.288 352.53Z"/><path stroke="#02007C" stroke-miterlimit="10" d="M-93.1334 352.53L-93.1334 237.32L22.0771 352.53L-93.1334 352.53Z"/><path stroke="#02007C" stroke-miterlimit="10" d="M137.288 410.271L-93.133 410.271L-35.6632 467.741L137.288 467.741L137.288 410.271Z"/><path stroke="#02007C" stroke-miterlimit="10" d="M79.5473 237.319L-93.133 237.319L-93.133 295.06L137.288 295.06L79.5473 237.319Z"/><path stroke="#02007C" stroke-miterlimit="10" d="M-93.1335 410.271L-93.1335 352.53L22.0771 352.53L79.5469 410.271L-93.1335 410.271Z"/><path stroke="#02007C" stroke-miterlimit="10" d="M137.288 352.53L137.288 295.061L-35.6632 295.061L22.0775 352.53L137.288 352.53Z"/><path stroke="#02007C" stroke-miterlimit="10" d="M194.755 640.692L194.755 525.481L309.966 640.692L194.755 640.692Z"/><path stroke="#02007C" stroke-miterlimit="10" d="M367.707 525.481L194.756 525.481L194.756 582.951L425.177 582.951L367.707 525.481Z"/><path stroke="#02007C" stroke-miterlimit="10" d="M-35.6646 582.951L-35.6646 467.741L79.5459 582.951L-35.6646 582.951Z"/><path stroke="#02007C" stroke-miterlimit="10" d="M137.287 467.741L-35.6642 467.741L-35.6642 525.481L194.757 525.481L137.287 467.741Z"/><path stroke="#02007C" stroke-miterlimit="10" d="M194.757 582.951L194.757 525.481L22.0765 525.481L79.5463 582.951L194.757 582.951Z"/></g></g><mask id="mask2" width="1929" height="492" x="-82" y="35" mask-type="alpha" maskUnits="userSpaceOnUse"><rect width="1929" height="491.706" x="-82" y="35" fill="url(#paint2_linear)" rx="3.546"/></mask><g mask="url(#mask2)"><rect width="51.963" height="51.963" x="132.355" y="253.179" fill="#8AE3FF" fill-opacity=".1"/><rect width="51.963" height="51.963" x="103.487" y="290.707" fill="#8AE3FF" fill-opacity=".1"/><rect width="25.982" height="25.982" x="239.17" y="175.234" fill="#8AE3FF" fill-opacity=".1"/><rect width="25.982" height="25.982" x="787.941" y="91.735" fill="#8AE3FF" fill-opacity=".1"/><rect width="46.189" height="46.189" x="602.623" y="278.944" fill="#8AE3FF" fill-opacity=".1"/><rect width="25.982" height="25.982" x="395.131" y="286.612" fill="#8AE3FF" fill-opacity=".1"/><rect width="8.661" height="8.661" x="109.261" y="175.234" fill="#8AE3FF" fill-opacity=".1"/><rect width="25.982" height="25.982" x="24.139" y="324.854" fill="#8AE3FF" fill-opacity=".1"/><rect width="25.982" height="25.982" x="324.209" y="436.121" fill="#8AE3FF" fill-opacity=".1"/><rect width="8.661" height="8.661" x="259.376" y="426.389" fill="#8AE3FF" fill-opacity=".1"/><rect width="47.822" height="47.822" x="1662.91" y="289.92" fill="#8AE3FF" fill-opacity=".1" transform="rotate(180 1662.91 289.92)"/><rect width="47.822" height="47.822" x="1689.47" y="255.383" fill="#8AE3FF" fill-opacity=".1" transform="rotate(180 1689.47 255.383)"/><rect width="23.911" height="23.911" x="1564.6" y="361.653" fill="#8AE3FF" fill-opacity=".1" transform="rotate(180 1564.6 361.653)"/><rect width="23.911" height="23.911" x="1073.07" y="476.571" fill="#8AE3FF" fill-opacity=".1" transform="rotate(180 1073.07 476.571)"/><rect width="42.508" height="42.508" x="1331.67" y="357.921" fill="#8AE3FF" fill-opacity=".1" transform="rotate(180 1331.67 357.921)"/><rect width="23.911" height="23.911" x="1220.29" y="133.825" fill="#8AE3FF" fill-opacity=".1" transform="rotate(180 1220.29 133.825)"/><rect width="7.97" height="7.97" x="1684.16" y="361.653" fill="#8AE3FF" fill-opacity=".1" transform="rotate(180 1684.16 361.653)"/><rect width="23.911" height="23.911" x="1762.5" y="223.956" fill="#8AE3FF" fill-opacity=".1" transform="rotate(180 1762.5 223.956)"/><rect width="23.911" height="23.911" x="1486.34" y="121.556" fill="#8AE3FF" fill-opacity=".1" transform="rotate(180 1486.34 121.556)"/><rect width="7.97" height="7.97" x="1546.01" y="130.514" fill="#8AE3FF" fill-opacity=".1" transform="rotate(180 1546.01 130.514)"/></g><defs><linearGradient id="paint0_linear" x1="212.296" x2="345.729" y1="358.466" y2="-232.209" gradientUnits="userSpaceOnUse"><stop offset="0" stop-color="#181878"/><stop offset=".998" stop-color="#187FC4"/></linearGradient><linearGradient id="paint1_linear" x1="2012.3" x2="2142" y1="932.169" y2="349.392" gradientUnits="userSpaceOnUse"><stop offset="0" stop-color="#181878"/><stop offset=".998" stop-color="#187FC4"/></linearGradient><linearGradient id="paint2_linear" x1="145.828" x2="325.765" y1="469.083" y2="-236.826" gradientUnits="userSpaceOnUse"><stop stop-color="#00007D"/><stop offset="1" stop-color="#2C48FF"/></linearGradient></defs></svg>